<svg fill="none" xmlns="http://www.w3.org/2000/svg" viewBox="0 0 103 40"><g clip-path="url(#a)" fill-rule="evenodd" clip-rule="evenodd" fill="#9FA6B2"><path d="M100.284 20.578c-.742-.003-1.484.002-2.225.006-1.316.008-2.677.017-4.008-.02-1.552-.04-2.605.517-3.41 1.811-1.174 1.883-3.748 2.519-5.622 1.39-1.522-.918-2.452-2.686-2.211-4.203.294-1.855 1.596-3.347 3.239-3.71 1.944-.431 3.743.293 4.694 1.89.713 1.198 1.69 1.722 3.125 1.703 1.302-.018 2.629-.013 3.912-.008.849.004 1.697.007 2.545.004 1.682-.006 2.399-.725 2.399-2.404 0-4.693-.004-9.386-.012-14.079C102.707.86 102.07.22 99.984.22c-2.167 0-4.336.007-6.504.015-5.07.02-10.312.04-15.46-.064-1.944-.04-3.672.602-4.867 1.806-1.16 1.168-1.745 2.786-1.693 4.68.085 3.089.065 6.237.045 9.282-.008 1.342-.017 2.684-.017 4.026L71.486 24c-.002 3.204-.004 6.409.005 9.613.01 3.862 2.297 6.176 6.117 6.188 2.948.01 5.917.012 8.879.012 3.399 0 6.786-.004 10.112-.008l3.637-.005c1.792-.001 2.49-.714 2.489-2.542l-.003-14.185c0-1.72-.752-2.489-2.438-2.496ZM42.144 13.493h1.299v6.405l.012.653v3.961c-.002 4.302-.004 8.603.006 12.905.003 1.622.684 2.348 2.206 2.354 1.552.006 3.116.008 4.674.008 1.475 0 2.944-.001 4.388-.003l2.793-.003c1.372-.001 2.171-.796 2.193-2.179.006-.407.004-.814.002-1.222l-.003-.615V13.483c3.096 0 3.883.001 6.979-.004 1.092-.002 2.346-.218 2.355-1.892.012-2.396.008-4.831.004-7.186l-.003-2.27c0-.558-.214-1.858-2.18-1.883a70.98 70.98 0 0 0-1.22-.001l-.616.002h-7.2a6.262 6.262 0 0 0-.688-.037L55.604.208C52.47.201 49.23.193 46.044.206a7.478 7.478 0 0 0-.808.043h-8.578c-1.65 0-2.546.348-2.551 2.182l-.004 1.234c-.007 2.497-.015 5.08-.002 7.622.01 1.898.775 2.205 2.603 2.205l5.44.001ZM18.145 26.612c-1.878 1.107-4.457.486-5.63-1.354-.807-1.266-1.863-1.814-3.406-1.771a125.6 125.6 0 0 1-4.008.02c-.742-.005-1.484-.009-2.226-.006-1.686.006-2.438.763-2.438 2.453L.434 37.286c0 1.797.697 2.498 2.489 2.5l3.698.004c3.312.004 6.683.008 10.068.008 2.955 0 5.92-.003 8.862-.012 3.82-.012 6.107-2.278 6.117-6.062.009-3.016.007-4.869.005-7.137l-.001-1.442h.003v-4.349c0-1.705-1.414-3.093-3.15-3.093h-6.929c-6.866-.028-8.673-1.353-9.13-1.922-.21-.26-.232-.466-.23-.556.579-1.122 1.585-1.954 2.772-2.211 1.949-.422 3.75.285 4.701 1.845.714 1.172 1.68 1.681 3.121 1.666 1.303-.018 2.63-.013 3.913-.008.848.003 1.696.006 2.545.004 1.681-.006 2.399-.713 2.399-2.364 0-4.427-.004-6.497-.011-10.76l-.001-.469c-.004-2.061-.64-2.69-2.726-2.69-2.168-.002-4.333.006-6.5.014C17.378.271 12.134.29 6.984.19 5.017.15 3.273.794 2.076 2 .945 3.142.374 4.713.425 6.544c.081 2.907.066 4.644.047 6.843l-.008.955H.422v4.349c0 1.706 1.413 3.094 3.15 3.094h7.233c6.408-.199 8.402.995 9.02 1.724.314.371.319.683.313.773a4.721 4.721 0 0 1-1.993 2.331Z"/></g><defs><clipPath id="a"><path fill="#fff" transform="translate(.355)" d="M0 0h102.646v40H0z"/></clipPath></defs></svg>