<svg fill="none" xmlns="http://www.w3.org/2000/svg" viewBox="0 0 147 40"><g clip-path="url(#a)" fill="#9FA6B2"><path d="M51.871 4.875v8.04a4.636 4.636 0 0 1-.58 2.35 3.755 3.755 0 0 1-1.669 1.527 5.872 5.872 0 0 1-2.574.509 5.088 5.088 0 0 1-3.562-1.165 4.137 4.137 0 0 1-1.288-3.16V4.875h2.977v8.142c.03 1.356.655 2.035 1.873 2.035a1.805 1.805 0 0 0 1.389-.509c.358-.47.527-1.056.473-1.644V4.875h2.961ZM65.151 17.158h-2.956l-4.35-7.632v7.632h-2.962V4.875h2.961l4.346 7.633V4.875h2.951l.01 12.283ZM71.242 17.158H68.3V4.875h2.956l-.015 12.283ZM78.743 13.815l2.447-8.94h3.308L80.36 17.158h-3.236L73.023 4.875h3.282l2.438 8.94ZM93.895 11.943h-4.656v2.936h5.52v2.28h-8.482V4.874h8.483V7.16h-5.521v2.59h4.656v2.193ZM101.953 12.81h-1.593v4.346h-2.962V4.873h4.834a5.404 5.404 0 0 1 3.42.967 3.295 3.295 0 0 1 1.231 2.742 3.965 3.965 0 0 1-.509 2.122 3.665 3.665 0 0 1-1.623 1.364l2.544 4.961v.127h-3.175l-2.167-4.345Zm-1.593-2.279h1.872a1.695 1.695 0 0 0 1.273-.443 1.7 1.7 0 0 0 .417-1.236 1.755 1.755 0 0 0-.433-1.252 1.66 1.66 0 0 0-1.267-.448h-1.862v3.38ZM115.562 13.892a1.217 1.217 0 0 0-.458-1.018 5.778 5.778 0 0 0-1.618-.748 15.293 15.293 0 0 1-1.888-.753c-1.572-.773-2.386-1.852-2.386-3.23-.01-.651.2-1.286.595-1.802a3.872 3.872 0 0 1 1.68-1.216 6.548 6.548 0 0 1 2.447-.433 5.722 5.722 0 0 1 2.376.473 3.76 3.76 0 0 1 1.634 1.344c.39.591.592 1.286.58 1.994h-2.951a1.492 1.492 0 0 0-.464-1.165 1.783 1.783 0 0 0-1.241-.412c-.444-.023-.884.1-1.252.351a1.062 1.062 0 0 0-.463.89 1.086 1.086 0 0 0 .509.855c.55.354 1.151.621 1.781.794.726.22 1.426.515 2.091.88 1.33.767 1.993 1.822 1.99 3.165a2.983 2.983 0 0 1-1.216 2.545 5.38 5.38 0 0 1-3.333.92 6.613 6.613 0 0 1-2.702-.508 4.072 4.072 0 0 1-1.822-1.47 3.817 3.817 0 0 1-.61-2.148h2.966a1.874 1.874 0 0 0 .509 1.455 2.386 2.386 0 0 0 1.654.469c.411.025.818-.086 1.16-.316a1.016 1.016 0 0 0 .432-.916ZM123.873 17.158h-2.951V4.875h2.951v12.283ZM143.462 4.875l-2.717 5.333-2.728-5.333h-12.365V7.16h3.618v9.998h2.962V7.16h3.882l3.129 5.587v4.411h3.003v-4.411l4.416-7.872h-3.2ZM52.527 28.413a7.29 7.29 0 0 1-.667 3.186c-.41.88-1.07 1.619-1.898 2.126a5.25 5.25 0 0 1-2.793.748c-.977.02-1.94-.23-2.784-.722a4.936 4.936 0 0 1-1.898-2.035 7.159 7.159 0 0 1-.712-3.079v-.717a7.247 7.247 0 0 1 .666-3.186 4.875 4.875 0 0 1 1.898-2.132 5.643 5.643 0 0 1 5.598 0 5.033 5.033 0 0 1 1.903 2.117c.466.976.701 2.047.687 3.13v.564Zm-3.013-.509a5.16 5.16 0 0 0-.61-2.778 1.975 1.975 0 0 0-1.75-.951c-1.486 0-2.272 1.114-2.357 3.343v.9a5.338 5.338 0 0 0 .6 2.779 2.082 2.082 0 0 0 3.512 0c.434-.842.63-1.788.565-2.733l.04-.56ZM62.81 29.412h-4.773v4.895H55.07V22.023h8.218v2.285h-5.251v2.824h4.773v2.28ZM111.453 29.091h-4.661v2.936h5.501v2.28h-8.457V22.023h8.477v2.285h-5.521v2.59h4.661v2.193ZM119.533 29.96h-1.603v4.345h-2.961V22.02h4.834a5.383 5.383 0 0 1 3.414.967 3.287 3.287 0 0 1 1.231 2.738 4.01 4.01 0 0 1-.508 2.127 3.667 3.667 0 0 1-1.624 1.363l2.545 4.962v.127h-3.17l-2.158-4.346Zm-1.603-2.28h1.873a1.682 1.682 0 0 0 1.267-.443 1.711 1.711 0 0 0 .427-1.242 1.731 1.731 0 0 0-.432-1.246 1.665 1.665 0 0 0-1.262-.453h-1.873v3.384ZM76.774 32.012h-4.071l-.707 2.295h-3.394l4.732-12.284h2.783l4.539 12.284h-3.18l-.702-2.295Zm-3.349-2.29h2.641l-1.323-4.28-1.318 4.28ZM85.202 32.027h5.154v2.28h-8.141V22.023h2.961l.026 10.004ZM92.262 34.307V22.023h4.411c1.578 0 2.784.29 3.603.866a3.212 3.212 0 0 1 .799 4.152c-.306.473-.761.83-1.293 1.017.59.133 1.114.468 1.481.947.35.49.529 1.082.509 1.684a3.25 3.25 0 0 1-1.145 2.712c-.763.607-1.893.916-3.389.926l-4.976-.02Zm2.956-7.165h1.527c.488.041.976-.084 1.384-.356a1.257 1.257 0 0 0 .412-1.018 1.319 1.319 0 0 0-.448-1.119 2.376 2.376 0 0 0-1.44-.346h-1.435v2.84Zm0 1.94v2.945h1.944c.441.03.878-.1 1.231-.366a1.287 1.287 0 0 0 .428-1.018 1.364 1.364 0 0 0-1.527-1.526l-2.076-.036ZM135.921 24.308h-3.689v9.999h-2.962v-9.999h-3.618v-2.285h10.269v2.285ZM142.765 32.012h-4.071l-.681 2.295h-3.165l4.508-12.284h2.783l4.524 12.284h-3.18l-.718-2.295Zm-3.348-2.29h2.666l-1.353-4.28-1.313 4.28ZM21.087 4.738l-.331-.132a6.94 6.94 0 0 0-2.544-.453 7.017 7.017 0 0 0-2.356.386 7.068 7.068 0 0 0-2.361-.386 6.94 6.94 0 0 0-2.545.453l-.33.132v.733h-.835v5.678h12.12V5.471h-.819v-.733Zm-5.76 5.088a7.8 7.8 0 0 0-3.67 0V5.46a6.803 6.803 0 0 1 3.67 0v4.366Zm4.711 0a7.8 7.8 0 0 0-3.668 0V5.46a6.803 6.803 0 0 1 3.668 0v4.366Z"/><path d="m30.139 3.053-.433-.209C25.732.906 21.326 0 15.851 0 10.375 0 5.969.906 1.98 2.844l-.433.209-1.43.697v16.42c0 2.728.585 9.633 5.984 14.304a28.672 28.672 0 0 0 8.681 5.165s.992.361 1.069.361c.076 0 1.058-.361 1.058-.361a28.555 28.555 0 0 0 8.65-5.165c5.435-4.671 6.02-11.576 6.02-14.303V3.755l-1.44-.702ZM11.449 34.24l-.6.6a19.554 19.554 0 0 1-1.527-1.053L10.9 32.21l.56.56-.01 1.47Zm0-4.07-.931.93-1.293 1.278-1.292-1.293-.931-.931v-1.465l.56-.56 1.663 1.664 1.664-1.664.56.56v1.48Zm0-4.072-2.224 2.199-2.223-2.224v-1.465l.56-.56 1.663 1.664 1.664-1.664.56.56v1.49Zm6.615 8.167-.931.931-1.293 1.293-1.297-1.292-.931-.932V32.77l.565-.56 1.663 1.665 1.66-1.664.564.56v1.495Zm0-4.07-.931.93-1.293 1.293-1.297-1.292-.931-.931v-1.506l.565-.56 1.663 1.664 1.66-1.664.564.56v1.506Zm0-4.071-2.224 2.224-2.228-2.224v-1.516l.565-.56 1.663 1.664 1.66-1.664.564.56v1.516Zm2.173 8.167v-1.522l.56-.56 1.577 1.578c-.509.387-1.018.738-1.527 1.053l-.61-.55Zm4.447-4.07-.931.93-1.293 1.293-1.292-1.293-.931-.93v-1.532l.56-.56 1.663 1.664 1.664-1.664.56.56v1.531Zm0-4.072-2.224 2.224-2.223-2.224v-1.541l.56-.56 1.663 1.664 1.664-1.664.56.56v1.541Zm4.193-3.495a5.76 5.76 0 0 1-2.127-.774 3.562 3.562 0 0 0-3.531 0 5.73 5.73 0 0 1-5.598 0 3.561 3.561 0 0 0-3.526 0 5.73 5.73 0 0 1-5.597 0 3.562 3.562 0 0 0-3.532 0 5.76 5.76 0 0 1-2.137.692 19.153 19.153 0 0 1-.168-2.122c.438-.069.86-.213 1.247-.427a5.704 5.704 0 0 1 5.597 0 3.562 3.562 0 0 0 3.532 0 5.694 5.694 0 0 1 5.597 0 3.562 3.562 0 0 0 3.531 0 5.704 5.704 0 0 1 5.598 0c.387.213.809.358 1.246.427a19.16 19.16 0 0 1-.122 2.127l-.01.077Zm.152-4.239-3.974-4.07-3.745 3.775-5.47-5.597-5.465 5.536-3.74-3.776-3.974 4.035V5.343l.433-.214c3.638-1.766 7.709-2.585 12.757-2.585 5.047 0 9.128.82 12.761 2.585l.433.214-.016 13.072Z"/></g><defs><clipPath id="a"><path fill="#fff" transform="translate(.117)" d="M0 0h146.546v40H0z"/></clipPath></defs></svg>