<svg fill="none" xmlns="http://www.w3.org/2000/svg" viewBox="0 0 192 40"><g clip-path="url(#a)" fill-rule="evenodd" clip-rule="evenodd" fill="#9FA6B2"><path d="M186.751 29.89c.116 1.323 1.173 3.008 3.003 3.008h1.071a.759.759 0 0 0 .755-.757V8.538h-.005a.755.755 0 0 0-.75-.716h-3.318a.756.756 0 0 0-.751.716h-.005v1.918c-2.033-2.511-5.238-3.554-8.452-3.554-7.306 0-13.229 5.94-13.229 13.269 0 7.328 5.923 13.268 13.229 13.268v.001c3.214 0 6.717-1.25 8.452-3.553v.003Zm-8.439-1.095c-4.647 0-8.414-3.86-8.414-8.624 0-4.763 3.767-8.625 8.414-8.625 4.646 0 8.413 3.862 8.413 8.625s-3.767 8.625-8.413 8.625ZM160.872 30.703l-.001-12.213c0-6.885-4.33-11.53-11.235-11.53-3.297 0-5.999 1.913-6.953 3.555-.207-1.284-.886-2.634-2.994-2.634h-1.075a.759.759 0 0 0-.755.758v23.604h.005c.021.397.35.716.751.716h3.318c.051 0 .1-.006.149-.016.022-.004.042-.013.063-.019.025-.007.051-.013.074-.023.03-.012.056-.029.084-.044.013-.008.027-.014.04-.023a.667.667 0 0 0 .093-.073l.016-.013a.757.757 0 0 0 .232-.506h.004V18.3c0-3.697 2.989-6.695 6.675-6.695 3.687 0 6.676 2.998 6.676 6.695l.003 11.654.001-.004.001.032v2.26h.005a.756.756 0 0 0 .751.717h3.318a.776.776 0 0 0 .149-.016c.019-.003.037-.011.057-.017.027-.008.055-.015.081-.025.027-.011.051-.027.077-.041.016-.01.032-.016.047-.026a.699.699 0 0 0 .086-.068l.022-.018a.707.707 0 0 0 .085-.098l.006-.007a.746.746 0 0 0 .14-.398l.001-.002h.004v-1.54h-.001ZM126.318 29.89c.116 1.323 1.172 3.008 3.002 3.008h1.071a.759.759 0 0 0 .755-.757V8.538h-.004a.756.756 0 0 0-.751-.716h-3.318a.756.756 0 0 0-.751.716h-.004v1.918c-2.034-2.511-5.239-3.554-8.453-3.554-7.306 0-13.228 5.94-13.228 13.269 0 7.328 5.922 13.268 13.228 13.268v.001c3.214 0 6.717-1.25 8.452-3.553l.001.003Zm-8.44-1.095c-4.646 0-8.413-3.86-8.413-8.624 0-4.763 3.767-8.625 8.413-8.625 4.647 0 8.413 3.862 8.413 8.625s-3.766 8.625-8.413 8.625ZM85.016 26.51c2.215 1.539 4.633 2.286 6.956 2.286 2.214 0 4.502-1.15 4.502-3.154 0-2.675-4.987-3.09-8.12-4.159-3.133-1.068-5.832-3.275-5.832-6.85 0-5.471 4.86-7.73 9.396-7.73 2.874 0 5.84.95 7.762 2.312.662.503.259 1.08.259 1.08l-1.835 2.63c-.207.295-.567.551-1.085.23-.518-.32-2.334-1.609-5.1-1.609-2.768 0-4.435 1.282-4.435 2.871 0 1.905 2.166 2.505 4.704 3.154 4.423 1.196 9.247 2.633 9.247 8.07 0 4.821-4.495 7.8-9.463 7.8-3.765 0-6.97-1.077-9.659-3.055-.56-.563-.168-1.084-.168-1.084l1.826-2.616c.371-.489.84-.319 1.045-.176ZM72.259 29.89c.116 1.323 1.172 3.008 3.002 3.008h1.072a.759.759 0 0 0 .755-.757V8.538h-.005a.756.756 0 0 0-.75-.716h-3.319a.757.757 0 0 0-.751.716h-.004v1.918c-2.033-2.511-5.238-3.554-8.452-3.554-7.306 0-13.229 5.94-13.229 13.269 0 7.328 5.923 13.268 13.229 13.268v.001c3.214 0 6.717-1.25 8.451-3.553v.003Zm-8.44-1.095c-4.646 0-8.413-3.86-8.413-8.624 0-4.763 3.767-8.625 8.414-8.625 4.646 0 8.413 3.862 8.413 8.625s-3.767 8.625-8.413 8.625ZM32.031 21.074c-4.916 0-8.902 3.995-8.902 8.923 0 4.927 3.986 8.922 8.902 8.922 4.917 0 8.903-3.995 8.903-8.922 0-4.928-3.986-8.923-8.903-8.923Zm-23.129.001C3.986 21.075 0 25.07 0 29.997c0 4.927 3.986 8.922 8.902 8.922 4.917 0 8.903-3.995 8.903-8.922 0-4.928-3.986-8.922-8.903-8.922ZM29.37 9.922c0 4.928-3.986 8.922-8.902 8.922-4.917 0-8.902-3.995-8.902-8.922C11.565 4.995 15.55 1 20.466 1c4.916 0 8.902 3.995 8.902 8.922Z"/></g><defs><clipPath id="a"><path fill="#fff" d="M0 0h191.579v40H0z"/></clipPath></defs></svg>