<svg fill="none" xmlns="http://www.w3.org/2000/svg" viewBox="0 0 149 40"><g clip-path="url(#a)" fill="#9FA6B2"><path d="m.817 1.814.788 37.056c.003.179.072.35.192.476.12.127.283.198.453.2h8.304a.634.634 0 0 0 .459-.202.707.707 0 0 0 .19-.485l-.055-10.728a.704.704 0 0 1 .135-.43.64.64 0 0 1 .361-.246.612.612 0 0 1 .428.05c.132.069.239.183.301.324L17.2 38.761a.67.67 0 0 0 .238.287.62.62 0 0 0 .346.107h9.194a.63.63 0 0 0 .322-.096.676.676 0 0 0 .235-.25.723.723 0 0 0 .006-.682l-9.39-18.063a.734.734 0 0 1 0-.664l8.763-17.644a.721.721 0 0 0-.017-.685.672.672 0 0 0-.242-.246.627.627 0 0 0-.325-.087l-9.114.138a.616.616 0 0 0-.316.094.66.66 0 0 0-.23.245l-5.507 10.017a.196.196 0 0 1-.092.076.185.185 0 0 1-.117.007.194.194 0 0 1-.1-.065.212.212 0 0 1-.046-.113l-.39-9.578a.704.704 0 0 0-.2-.473.632.632 0 0 0-.457-.19l-8.312.206a.64.64 0 0 0-.455.218.713.713 0 0 0-.176.494Z"/><path d="m28.277 11.327 8.787-.206a.707.707 0 0 1 .536.226.818.818 0 0 1 .22.564V36.28a.807.807 0 0 1-.213.553.724.724 0 0 1-.521.234h-8.797a.724.724 0 0 1-.521-.234.806.806 0 0 1-.213-.553V12.116a.807.807 0 0 1 .208-.55.725.725 0 0 1 .514-.24ZM39.885 7.111l8.84-.142a.638.638 0 0 1 .367.108.69.69 0 0 1 .25.303l5.37 12.712c.014.035.04.063.072.08a.146.146 0 0 0 .103.012.154.154 0 0 0 .087-.06.169.169 0 0 0 .031-.106l-.39-12.578a.747.747 0 0 1 .18-.515.645.645 0 0 1 .473-.227l8.906-.206a.64.64 0 0 1 .48.204.713.713 0 0 1 .202.503l.282 26.454a.734.734 0 0 1-.183.502.66.66 0 0 1-.463.224l-8.453.284a.64.64 0 0 1-.35-.095.688.688 0 0 1-.251-.273l-5.574-10.722a.129.129 0 0 0-.062-.059.12.12 0 0 0-.082-.006.127.127 0 0 0-.069.05.14.14 0 0 0-.025.083l.195 10.559a.744.744 0 0 1-.183.508.644.644 0 0 1-.47.222l-8.699.205a.637.637 0 0 1-.478-.2.71.71 0 0 1-.203-.499l-.565-26.601a.735.735 0 0 1 .19-.506.66.66 0 0 1 .472-.218ZM32.904 9.268a4.154 4.154 0 0 0 1.661-.365 4.348 4.348 0 0 0 1.402-1.009c.4-.43.717-.94.93-1.498.214-.56.322-1.157.317-1.76a4.77 4.77 0 0 0-.328-1.741 4.575 4.575 0 0 0-.935-1.476 4.302 4.302 0 0 0-1.398-.987 4.113 4.113 0 0 0-3.299 0 4.302 4.302 0 0 0-1.398.987c-.4.422-.717.924-.934 1.476a4.77 4.77 0 0 0-.328 1.74 4.73 4.73 0 0 0 1.247 3.258 4.242 4.242 0 0 0 3.063 1.375ZM66.957 8.931l21.44-.454a.613.613 0 0 1 .446.184c.12.12.19.286.195.461l.247 6.435c.017.422-.107.837-.348 1.174L79.805 29.4a.211.211 0 0 0-.026.215c.015.035.04.065.07.086.03.021.066.033.102.034l8.403.288c.16.006.31.076.423.195a.68.68 0 0 1 .181.448l.322 8.039a.708.708 0 0 1-.167.485.61.61 0 0 1-.443.218l-21.683.602a.603.603 0 0 1-.456-.192.698.698 0 0 1-.187-.48v-6.164c0-.486.126-.964.366-1.379l8.5-14.747a.243.243 0 0 0 .003-.238.227.227 0 0 0-.083-.087.21.21 0 0 0-.114-.029l-8.045.072a.604.604 0 0 1-.448-.198.671.671 0 0 1-.183-.474V9.6a.687.687 0 0 1 .178-.468.616.616 0 0 1 .44-.202ZM144.074 7.843v.775a.095.095 0 0 1-.025.064.086.086 0 0 1-.061.028h-.465a.04.04 0 0 0-.017.004.036.036 0 0 0-.014.01.047.047 0 0 0-.01.016c-.002.005-.003.011-.002.018l.07 2.812a.09.09 0 0 1-.051.087.077.077 0 0 1-.033.008h-.87a.083.083 0 0 1-.062-.028.093.093 0 0 1-.026-.065V8.758a.06.06 0 0 0-.003-.02.047.047 0 0 0-.009-.015.067.067 0 0 0-.015-.011.047.047 0 0 0-.018-.004h-.537a.085.085 0 0 1-.062-.027.087.087 0 0 1-.018-.03.105.105 0 0 1-.006-.035v-.773c0-.012.002-.024.006-.036a.087.087 0 0 1 .046-.05.085.085 0 0 1 .034-.007h2.056a.084.084 0 0 1 .065.026.11.11 0 0 1 .02.03.112.112 0 0 1 .007.037ZM144.152 11.555l.274-3.7a.108.108 0 0 1 .031-.069.098.098 0 0 1 .067-.028h1.143a.1.1 0 0 1 .095.082l.321 1.523a.03.03 0 0 0 .009.013.023.023 0 0 0 .028 0 .022.022 0 0 0 .008-.013l.257-1.517a.11.11 0 0 1 .033-.061.096.096 0 0 1 .063-.025h1.001c.023 0 .046.01.064.026.017.017.028.04.031.064l.483 3.701a.108.108 0 0 1-.002.044.11.11 0 0 1-.02.039.096.096 0 0 1-.073.036h-.892a.101.101 0 0 1-.096-.084l-.222-1.252a.043.043 0 0 0-.012-.03.038.038 0 0 0-.057 0 .043.043 0 0 0-.012.03l-.11 1.233a.107.107 0 0 1-.03.067.099.099 0 0 1-.065.028h-.713a.095.095 0 0 1-.059-.022.102.102 0 0 1-.034-.056l-.3-1.234a.03.03 0 0 0-.008-.02.027.027 0 0 0-.039 0 .03.03 0 0 0-.008.02l-.058 1.197a.11.11 0 0 1-.03.07.096.096 0 0 1-.067.028h-.896a.091.091 0 0 1-.071-.021.098.098 0 0 1-.034-.069ZM102.682 10.465c-7.389 0-13.377 6.439-13.377 14.379 0 7.94 5.988 14.379 13.377 14.379 7.388 0 13.375-6.437 13.375-14.379 0-7.942-5.987-14.38-13.375-14.38Zm5.308 17.907c-1.219 1.196-3.945 2.734-6.968 2.708-3.505-.033-3.14-1.85-3.14-1.85l.216-2.404s-2.998-3.218-1.737-5.903c0 0 .85-1.735 4.146 1.403 0 0 1.041-.95 2.776-.66 0 0 .629-3.372 2.152-3.594.692-.103 3.157.913 1.963 6.168l1.348 1.698c.154.188.235.43.226.678-.019.405-.214 1.003-.982 1.756ZM145.037 23.128a15.742 15.742 0 0 0-1.465-6.694 14.908 14.908 0 0 0-4.132-5.309 13.271 13.271 0 0 0-2.3-1.499 13.063 13.063 0 0 0-8.16-1.305c-6.688 1.1-11.812 7.309-11.812 14.803 0 7.494 5.124 13.707 11.812 14.802a13.138 13.138 0 0 0 7.469-.967 13.768 13.768 0 0 0 4.508-3.241c2.624-2.827 4.09-6.631 4.08-10.59Zm-15.75 11.307a.409.409 0 0 1-.292.125.409.409 0 0 1-.292-.125 1.18 1.18 0 0 1-.302-.592 7.313 7.313 0 0 1-.247-2.078c.013-.55.07-1.16-.261-1.583-.302-.387-.822-.473-1.225-.734a1.762 1.762 0 0 1-.639-.791 1.887 1.887 0 0 1-.115-1.033c.123-.654.584-1.37.218-1.912-.237-.351-.701-.411-1.086-.549-.727-.275-1.301-.968-2.067-1.056a1.514 1.514 0 0 1-.64-.116 1.115 1.115 0 0 1-.39-.629l-1.032-2.964a1.722 1.722 0 0 1-.333.643c-.234-.52-.101-1.139.111-1.67.212-.53.506-1.027.6-1.597.031-.234.05-.47.056-.707a12.067 12.067 0 0 1 2.637-3.351c.17.011.338.04.503.086-.082-.205.087-.43.276-.522.199-.067.394-.146.584-.238.129-.089.224-.22.351-.313.438-.327 1.057-.074 1.572-.236.307-.1.553-.338.829-.51.277-.173.643-.274.91-.087 0 .089.011.177.015.266.585.17 1.219-.257 1.823-.14.896.177 1.27 1.404 2.123 1.741a2.444 2.444 0 0 0-1.482 1.153c-.09.157-.181.34-.347.39a.5.5 0 0 1-.255-.026.522.522 0 0 1-.214-.15 2.001 2.001 0 0 1-.623-1.303c-.026-.325-.014-.734-.292-.878a.688.688 0 0 0-.25-.057l-1.229-.128c-.233.058-.292.411-.167.617.149.197.341.352.561.452.109.05.208.123.288.217.08.093.14.204.175.324a.617.617 0 0 1-.089.387.57.57 0 0 1-.3.242.886.886 0 0 1-.746-.113c-.292-.175-.528-.576-.345-.872a.56.56 0 0 0-.749.134.628.628 0 0 0-.121.259.913.913 0 0 1-.039.232c-.1.226-.407.173-.643.179a.89.89 0 0 0-.548.229.981.981 0 0 0-.303.534.408.408 0 0 0 .004.246c.05.111.169.163.267.229.162.11.288.269.363.457.074.187.093.394.053.593-.027.13.369-.222.37-.224.111-.11.21-.23.296-.362.221-.351.234-.79.263-1.196a.478.478 0 0 1 .078-.274.33.33 0 0 1 .222-.107.723.723 0 0 1 .604.24.818.818 0 0 1 .21.645c.331.184.779-.241 1.087-.027a.701.701 0 0 1 .195.248c.296.546.557 1.113.779 1.697.041.084.056.18.043.273a.416.416 0 0 1-.176.206 3.902 3.902 0 0 1-1.883.762.939.939 0 0 0-.584.185c-.247.239-.162.677-.319.99-.256.505-1.04.515-1.253 1.042-.173.434-.074.508-.452.327-.377-.181-1.577.026-1.947.232-.37.206-.584.713-.407 1.108.177.395.991.34.906.565-.086.226.617.165.722.38.294.023.612.712.857.88.245.17.539.256.779.449.091-.235.26-.427.475-.54a.943.943 0 0 1 .693-.077c.195.06.359.179.544.25.307.118.644.104.958.206.313.103.625.375.584.716l.76-.02a.461.461 0 0 1 .224.03.544.544 0 0 1 .183.222c.218.372.51.689.856.928.346.24.738.397 1.148.46.274.257.218.738.027 1.071-.191.333-.481.59-.66.927-.103.206-.168.412-.288.597-.174.223-.38.417-.61.573a5.212 5.212 0 0 0-1.382 1.746 5.503 5.503 0 0 0-.558 2.197Zm10.345-17.41c.585.967 1.455 2.52 1.103 3.73a2.574 2.574 0 0 1-.456-.581.479.479 0 0 0-.135.298.495.495 0 0 0 .086.318l-.206.074a.503.503 0 0 1-.17-.47 1.156 1.156 0 0 0-.017-.527c-.066-.162-.304-.253-.401-.109a.383.383 0 0 1-.024.502c-.389-.041-.216-.874-.596-.983a.35.35 0 0 0-.25.061.385.385 0 0 0-.151.22c-.041.183-.057.37-.049.558a.302.302 0 0 1-.037.156.303.303 0 0 1-.177.1c-.288.085-.613.166-.872 0a1.137 1.137 0 0 1-.349-.41 148.82 148.82 0 0 1-.535-.855c.272.082.561.082.833 0 .263-.105.466-.438.341-.706a.27.27 0 0 1-.224-.04.308.308 0 0 1-.123-.202c-.025-.243.226-.411.417-.541.191-.13.339-.473.142-.602a.98.98 0 0 1 .596-.093c0-.442-.45-.707-.837-.878a.46.46 0 0 1-.117.66.369.369 0 0 1-.347-.006.404.404 0 0 1-.204-.296c-.012-.12.025-.253-.039-.351a.818.818 0 0 0-.16-.138c-.389-.362.374-1.195-.035-1.536.226-.29.695-.1.896.206.201.306.276.703.516.98.24.278.652.411.956.644.253.23.465.508.625.818ZM137.436 32.6a25.676 25.676 0 0 1 1.898-4.082c-.264-.014-.389-.37-.337-.643.053-.273.224-.508.297-.777.072-.27-.016-.633-.275-.691-.376-.088-.553.487-.88.701a.785.785 0 0 1-.631.064c-1.015-.27-1.438-1.563-1.445-2.673a2.248 2.248 0 0 1 .208-1.098c.327-.594 1.104-.894 1.213-1.573.059-.363 0-.902.349-.945.16-.02.306.107.467.115.361.014.622-.56.958-.426.337.134.16.687.332 1.016.171.329.779.224.821-.16.746.113 1.027.964 1.223 1.611a6.93 6.93 0 0 1 .21 2.95 6.793 6.793 0 0 1-1.035 2.747c-.75 1.125-1.833 1.988-2.472 3.187-.198.383-.533.862-.901.677Z"/></g><defs><clipPath id="a"><path fill="#fff" transform="translate(.816)" d="M0 0h148v40H0z"/></clipPath></defs></svg>