<svg fill="none" xmlns="http://www.w3.org/2000/svg" viewBox="0 0 127 20"><path fill-rule="evenodd" clip-rule="evenodd" d="m30.754 10.813-3.687 8.971h-5.695l5.11-8.971-4.701-8.254h5.581l3.392 8.254ZM3.527 2.559.135 10.813l3.687 8.971h5.695l-5.11-8.971 4.701-8.254H3.527Z" fill="#5DCFC9"/><path fill-rule="evenodd" clip-rule="evenodd" d="M47.84 5.934c-1.023 0-1.852.2-2.487.6-.635.398-.952.997-.952 1.795 0 .533.158.976.476 1.33.317.356.714.63 1.19.826.477.195 1.12.417 1.932.665.97.302 1.746.586 2.328.852.582.266 1.08.647 1.495 1.144.414.497.622 1.153.622 1.97 0 1.223-.459 2.15-1.376 2.78-.917.63-2.055.945-3.413.945-.97 0-1.896-.169-2.778-.506a6.768 6.768 0 0 1-2.275-1.41l.502-.852c.6.568 1.301 1.003 2.104 1.304a7.052 7.052 0 0 0 2.5.453c1.058 0 1.936-.222 2.632-.666.697-.443 1.045-1.09 1.045-1.942 0-.568-.163-1.034-.489-1.397a3.47 3.47 0 0 0-1.23-.865c-.494-.213-1.156-.444-1.985-.692-.952-.302-1.71-.581-2.275-.838a4.066 4.066 0 0 1-1.455-1.118c-.406-.488-.609-1.122-.609-1.903 0-1.153.428-2.022 1.284-2.608.855-.585 1.935-.878 3.24-.878 1.447 0 2.761.364 3.943 1.091l-.476.905c-1.023-.656-2.188-.985-3.493-.985Zm8.334-.984h1.085v13.864h-1.085V4.95ZM57.378.28a.927.927 0 0 1 .278.678.959.959 0 0 1-.278.705.886.886 0 0 1-.648.28.886.886 0 0 1-.648-.28.959.959 0 0 1-.278-.705c0-.266.092-.492.278-.679A.886.886 0 0 1 56.73 0c.247 0 .463.093.648.28Zm3.77 4.67h1.27l4.26 5.88 4.26-5.88h1.243l-4.815 6.706 5.159 7.158h-1.27l-4.604-6.307-4.63 6.307h-1.27l5.212-7.158-4.815-6.706Zm13.97 0 10.424.026v1.012l-9.419 11.815 9.604.026v1.012l-10.847-.027v-1.011l9.418-11.815h-9.18V4.95Zm23.084.891c.979.612 1.72 1.468 2.222 2.568.503 1.1.745 2.36.728 3.779H89.114c.053 1.118.326 2.102.82 2.954a5.215 5.215 0 0 0 2.01 1.982c.847.47 1.8.706 2.858.706.935 0 1.803-.165 2.606-.493a5.59 5.59 0 0 0 2.05-1.423l.636.718a6.602 6.602 0 0 1-2.355 1.637c-.917.381-1.914.572-2.99.572-1.287 0-2.443-.297-3.466-.892a6.258 6.258 0 0 1-2.394-2.475c-.573-1.055-.86-2.248-.86-3.579 0-1.33.291-2.528.873-3.592a6.355 6.355 0 0 1 2.394-2.488c1.015-.595 2.165-.892 3.453-.892 1.323 0 2.474.306 3.453.918Zm1.944 5.362c-.105-1.596-.643-2.874-1.614-3.832-.97-.958-2.23-1.437-3.783-1.437-1.552 0-2.84.484-3.863 1.45-1.023.968-1.605 2.24-1.746 3.82h11.006Zm8.03-5.335c.873-.595 1.927-.91 3.162-.945v1.144c-1.499 0-2.699.466-3.598 1.397-.9.932-1.411 2.214-1.535 3.846v7.504h-1.111V4.95h1.111v3.486c.441-1.118 1.098-1.974 1.971-2.568Zm15.002-.053a6.327 6.327 0 0 1 2.42 2.474c.583 1.056.874 2.25.874 3.58 0 1.348-.291 2.55-.874 3.605a6.327 6.327 0 0 1-2.42 2.475c-1.032.595-2.201.892-3.506.892-1.288 0-2.447-.297-3.479-.892a6.416 6.416 0 0 1-2.434-2.475c-.591-1.055-.887-2.257-.887-3.605 0-1.33.296-2.524.887-3.58a6.416 6.416 0 0 1 2.434-2.474c1.032-.595 2.191-.892 3.479-.892 1.305 0 2.474.297 3.506.892Zm-6.443.918a5.322 5.322 0 0 0-2.037 2.089c-.494.896-.741 1.911-.741 3.047 0 1.153.247 2.182.741 3.087a5.299 5.299 0 0 0 2.037 2.102c.864.497 1.843.745 2.937.745 1.094 0 2.077-.248 2.95-.745a5.182 5.182 0 0 0 2.037-2.102c.485-.905.728-1.934.728-3.087 0-1.136-.243-2.151-.728-3.047a5.204 5.204 0 0 0-2.037-2.09c-.873-.496-1.856-.744-2.95-.744s-2.073.248-2.937.745Z" fill="#233147"/></svg>